<?xml version="1.0" encoding="utf-8"?>
<!-- Generator: Adobe Illustrator 25.2.1, SVG Export Plug-In . SVG Version: 6.00 Build 0)  -->
<svg version="1.1" id="Layer_1" xmlns="http://www.w3.org/2000/svg" xmlns:xlink="http://www.w3.org/1999/xlink" x="0px" y="0px"
	 viewBox="0 0 125 125" style="enable-background:new 0 0 125 125;" xml:space="preserve">
<style type="text/css">
	.st0{clip-path:url(#SVGID_2_);fill:url(#SVGID_3_);}
	
		.st1{opacity:0.55;clip-path:url(#SVGID_2_);fill:none;stroke:#FFFFFF;stroke-width:0.313;stroke-linecap:round;stroke-linejoin:round;stroke-miterlimit:10;}
	.st2{opacity:0;clip-path:url(#SVGID_2_);}
	.st3{opacity:0.55;fill:none;stroke:#FFFFFF;stroke-width:0.313;stroke-linecap:round;stroke-linejoin:round;stroke-miterlimit:10;}
	
		.st4{fill:none;stroke:#FFFFFF;stroke-width:0.4695;stroke-linecap:round;stroke-linejoin:round;stroke-miterlimit:10;stroke-dasharray:0.9658,4.8288;}
	.st5{clip-path:url(#SVGID_2_);}
	.st6{fill:#FFFFFF;}
</style>
<g>
	<defs>
		<rect id="SVGID_1_" y="0" width="125" height="125"/>
	</defs>
	<clipPath id="SVGID_2_">
		<use xlink:href="#SVGID_1_"  style="overflow:visible;"/>
	</clipPath>
	<linearGradient id="SVGID_3_" gradientUnits="userSpaceOnUse" x1="62.5" y1="125" x2="62.5" y2="-8.185452e-12">
		<stop  offset="2.831514e-03" style="stop-color:#DC2626"/>
		<stop  offset="1" style="stop-color:#EF4444"/>
	</linearGradient>
	<path class="st0" d="M62.5,125L62.5,125C28,125,0,97,0,62.5v0C0,28,28,0,62.5,0h0C97,0,125,28,125,62.5v0C125,97,97,125,62.5,125z"
		/>
	<circle class="st1" cx="62.5" cy="62.5" r="62.5"/>
	<g class="st2">
		<circle class="st3" cx="62.5" cy="62.5" r="37.7"/>
		<line class="st3" x1="0" y1="0" x2="125" y2="125"/>
		<line class="st3" x1="125" y1="0" x2="0" y2="125"/>
		<rect x="24.9" y="-7.7" class="st4" width="75.1" height="140.4"/>
		
			<rect x="24.9" y="-7.7" transform="matrix(4.489393e-11 -1 1 4.489393e-11 -2.799048e-09 125)" class="st4" width="75.1" height="140.4"/>
	</g>
	<g class="st5">
		<path class="st6" d="M83.8,88.1c-1.4-1.8-4-2.1-5.9-0.9c-6.5,4-14.2,5.2-21.7,3.5c-7.6-1.8-14-6.4-18.1-12.9
			c-4.1-6.6-5.4-14.4-3.6-21.9c1.7-7.5,6.3-13.9,12.8-18c0.7-0.4,1.3-1,1.7-1.8c0.7-1.4,0.6-3-0.2-4.3c-1.3-2-3.9-2.7-6-1.4
			c-17.7,11-23.1,34.3-12.1,51.9c5.3,8.6,13.7,14.5,23.5,16.8c2.8,0.7,5.7,1,8.6,1c7,0,13.9-2,19.9-5.7
			C84.8,93.1,85.4,90.2,83.8,88.1z"/>
		<path class="st6" d="M94.4,78c-0.5-0.3-1.1-0.5-1.6-0.6c-0.6-0.1-1.2-0.1-1.7,0.1c-1.1,0.3-2.1,1-2.8,2c-0.3,0.5-0.5,1.1-0.6,1.6
			c-0.1,0.6-0.1,1.2,0.1,1.7c0.1,0.6,0.4,1.1,0.7,1.6c0.4,0.5,0.8,0.9,1.3,1.2c0.5,0.3,1.1,0.5,1.6,0.6c0.6,0.1,1.2,0.1,1.7-0.1
			c0.6-0.1,1.1-0.4,1.6-0.7c0.5-0.4,0.9-0.8,1.2-1.3c0.3-0.5,0.5-1.1,0.6-1.6c0.1-0.6,0.1-1.2-0.1-1.7c-0.1-0.6-0.4-1.1-0.7-1.6
			C95.4,78.7,94.9,78.3,94.4,78z"/>
	</g>
</g>
</svg>
